<svg xmlns="http://www.w3.org/2000/svg" viewBox="0 0 1495.27 180.75"><defs><style>.cls-1{fill:#d6ab00;}.cls-2{fill:#32322f;}</style></defs><g id="Layer_2" data-name="Layer 2"><g id="Layer_1-2" data-name="Layer 1"><path class="cls-1" d="M165.47,0H0L26.47,15.38l88.17,50.84,50.78,88.05,15.38,26.48V0Zm-.05,77.86L125.84,55,103,15.38h62.46ZM57.19,15.38H85.32l14,24.35ZM141.13,81.5l24.29,14v28.06Z"/><rect class="cls-1" x="935.05" y="21.72" width="3.23" height="96.72"/><path class="cls-2" d="M1043.67,35.59a25.18,25.18,0,0,1-1.75,9.75,18,18,0,0,1-4.93,6.89,21,21,0,0,1-7.8,4.1,36.13,36.13,0,0,1-10.3,1.36q-2.61,0-6.09-.21a51.22,51.22,0,0,1-6.83-.9V14.66a54.83,54.83,0,0,1,7-.84q3.64-.23,6.25-.22a37.69,37.69,0,0,1,10,1.24,20.75,20.75,0,0,1,7.73,3.91,17.37,17.37,0,0,1,5,6.84A25.82,25.82,0,0,1,1043.67,35.59Zm-28,13.66c.45,0,1,.07,1.58.09s1.31,0,2.14,0q7.27,0,10.78-3.66c2.33-2.44,3.51-5.82,3.51-10.12q0-6.78-3.36-10.25t-10.62-3.48l-2.05,0a17.26,17.26,0,0,0-2,.16Z"/><path class="cls-2" d="M1059.54,15a5.08,5.08,0,0,1-1.64,4,5.86,5.86,0,0,1-7.76,0,5.05,5.05,0,0,1-1.65-4,5.09,5.09,0,0,1,1.65-4,5.92,5.92,0,0,1,7.76,0A5.11,5.11,0,0,1,1059.54,15Zm-.87,42.11h-9.25V24.47h9.25Z"/><path class="cls-2" d="M1093.46,53q0,8-4.07,11.89t-12.58,3.88a34.38,34.38,0,0,1-6-.53,38.17,38.17,0,0,1-5.53-1.39l1.62-7.77a25.58,25.58,0,0,0,10,1.87q4,0,5.62-1.74a6.28,6.28,0,0,0,1.64-4.48V53.59a14.78,14.78,0,0,1-3.07,1,16.21,16.21,0,0,1-3.45.34q-6.77,0-10.37-4t-3.6-11.21a18.32,18.32,0,0,1,1.12-6.56,13.92,13.92,0,0,1,3.26-5.06,14.74,14.74,0,0,1,5.25-3.26,20.25,20.25,0,0,1,7-1.15c1.12,0,2.27.06,3.45.16s2.35.24,3.51.4,2.27.37,3.32.59,2,.47,2.83.72Zm-20.31-13.29q0,7.76,6.27,7.76a9.21,9.21,0,0,0,2.67-.37,10.25,10.25,0,0,0,2.11-.87V31.49c-.45-.09-1-.16-1.61-.22s-1.35-.09-2.18-.09A6.35,6.35,0,0,0,1075,33.6,10,10,0,0,0,1073.15,39.75Z"/><path class="cls-2" d="M1110.49,15a5.05,5.05,0,0,1-1.65,4,5.86,5.86,0,0,1-7.76,0,5.05,5.05,0,0,1-1.65-4,5.09,5.09,0,0,1,1.65-4,5.92,5.92,0,0,1,7.76,0A5.09,5.09,0,0,1,1110.49,15Zm-.87,42.11h-9.26V24.47h9.26Z"/><path class="cls-2" d="M1116.17,16.33l9.26-1.49v9.63h11.11v7.7h-11.11V43.66a9.17,9.17,0,0,0,1,4.66c.68,1.16,2.06,1.74,4.13,1.74a18.25,18.25,0,0,0,3.07-.28,16.19,16.19,0,0,0,2.89-.78l1.31,7.2a25.59,25.59,0,0,1-3.73,1.18,21.76,21.76,0,0,1-5,.5,16.37,16.37,0,0,1-6.27-1,9.85,9.85,0,0,1-4-2.85,10.75,10.75,0,0,1-2.08-4.44,26.47,26.47,0,0,1-.59-5.78Z"/><path class="cls-2" d="M1154.09,23.6a21.5,21.5,0,0,1,6.83.93,10.52,10.52,0,0,1,4.37,2.67,9.88,9.88,0,0,1,2.34,4.22,21.1,21.1,0,0,1,.68,5.53V56.2c-1.33.29-3.17.64-5.53,1a53.52,53.52,0,0,1-8.57.59,27.25,27.25,0,0,1-5.74-.56,12.36,12.36,0,0,1-4.44-1.83,8.31,8.31,0,0,1-2.86-3.33,11.46,11.46,0,0,1-1-5,9.61,9.61,0,0,1,1.14-4.85,8.91,8.91,0,0,1,3.08-3.17,14.18,14.18,0,0,1,4.41-1.71,24.78,24.78,0,0,1,5.15-.52,30.3,30.3,0,0,1,3.2.15,14.48,14.48,0,0,1,2.27.41v-.87a5.12,5.12,0,0,0-1.43-3.79c-1-.95-2.61-1.43-5-1.43a32.77,32.77,0,0,0-4.66.34,20.46,20.46,0,0,0-4,1l-1.18-7.45c.54-.16,1.21-.34,2-.53s1.68-.35,2.64-.49,1.95-.27,3-.38S1153,23.6,1154.09,23.6Zm.74,27.08c.91,0,1.78,0,2.61-.07a18.86,18.86,0,0,0,2-.18v-7c-.38-.08-.94-.16-1.68-.25a19.42,19.42,0,0,0-2-.12,18.85,18.85,0,0,0-2.45.15,6.56,6.56,0,0,0-2,.59,3.52,3.52,0,0,0-1.37,1.18,3.32,3.32,0,0,0-.49,1.87,3.16,3.16,0,0,0,1.46,3A8,8,0,0,0,1154.83,50.68Z"/><path class="cls-2" d="M1187.83,57.76a23.77,23.77,0,0,1-6.56-.87,9.77,9.77,0,0,1-4-2.27,7.51,7.51,0,0,1-2-3.54,19.21,19.21,0,0,1-.53-4.69v-36L1184,8.94V44.53a12.51,12.51,0,0,0,.18,2.23,3.9,3.9,0,0,0,.72,1.68,3.75,3.75,0,0,0,1.52,1.12,8.5,8.5,0,0,0,2.67.56Z"/><path class="cls-2" d="M1219.44,13.6q9.68,0,14.84,3.45c3.43,2.29,5.15,5.87,5.15,10.71a12.09,12.09,0,0,1-2.08,7.36,13.76,13.76,0,0,1-6,4.44q1.31,1.62,2.73,3.7c1,1.38,1.9,2.83,2.83,4.34s1.83,3.09,2.7,4.72,1.67,3.24,2.42,4.82h-10.83l-2.4-4.29q-1.21-2.18-2.49-4.22t-2.53-3.88q-1.24-1.83-2.49-3.33h-4.79V57.14h-9.68V14.72a54.43,54.43,0,0,1,6.55-.87C1215.64,13.68,1217.65,13.6,1219.44,13.6Zm.55,8.26q-1,0-1.89.06l-1.59.13V33.72h2.74q5.46,0,7.82-1.36a4.93,4.93,0,0,0,2.36-4.66,4.72,4.72,0,0,0-2.39-4.5A14.76,14.76,0,0,0,1220,21.86Z"/><path class="cls-2" d="M1243.77,41.05a20,20,0,0,1,1.33-7.61,16.32,16.32,0,0,1,3.51-5.43,14.55,14.55,0,0,1,5-3.29,15.55,15.55,0,0,1,5.81-1.12q6.94,0,11,4.25t4,12.52q0,.81-.06,1.77c0,.64-.08,1.21-.12,1.7h-21a6.11,6.11,0,0,0,2.67,4.54,10.7,10.7,0,0,0,6.33,1.68,26.73,26.73,0,0,0,5-.47,18.62,18.62,0,0,0,4-1.15l1.24,7.51a12.82,12.82,0,0,1-2,.75,24.48,24.48,0,0,1-2.76.65c-1,.19-2.1.34-3.26.47A33.81,33.81,0,0,1,1261,58a20.56,20.56,0,0,1-7.67-1.31,15,15,0,0,1-5.4-3.57,14.1,14.1,0,0,1-3.17-5.37A21.39,21.39,0,0,1,1243.77,41.05Zm21.73-3.54a9.9,9.9,0,0,0-.4-2.3,5.74,5.74,0,0,0-1.06-2,5.46,5.46,0,0,0-1.8-1.43,5.75,5.75,0,0,0-2.7-.56,6.2,6.2,0,0,0-2.67.53,5.47,5.47,0,0,0-1.86,1.39,6.29,6.29,0,0,0-1.15,2,12.84,12.84,0,0,0-.59,2.33Z"/><path class="cls-2" d="M1289.1,50.49a9,9,0,0,0,3.6-.5,1.91,1.91,0,0,0,1.06-1.92,2.37,2.37,0,0,0-1.37-2,25.66,25.66,0,0,0-4.16-1.89,42.81,42.81,0,0,1-3.94-1.68,11.39,11.39,0,0,1-3-2.08,8.48,8.48,0,0,1-1.93-2.89,10.59,10.59,0,0,1-.68-4,8.74,8.74,0,0,1,3.41-7.27q3.42-2.67,9.38-2.67a30.16,30.16,0,0,1,5.71.53,25.71,25.71,0,0,1,4.35,1.15l-1.61,7.2a35.21,35.21,0,0,0-3.51-1,19.1,19.1,0,0,0-4.26-.44q-4.34,0-4.34,2.42a2.59,2.59,0,0,0,.18,1,2.21,2.21,0,0,0,.75.84,10.18,10.18,0,0,0,1.52.87c.64.31,1.46.66,2.45,1a37.2,37.2,0,0,1,5,2.23,11.92,11.92,0,0,1,3.14,2.36,7.41,7.41,0,0,1,1.61,2.82,12.5,12.5,0,0,1,.47,3.59,8.3,8.3,0,0,1-3.63,7.32Q1295.68,58,1289,58a29.42,29.42,0,0,1-7.24-.75,29.91,29.91,0,0,1-4-1.24l1.55-7.52A30.11,30.11,0,0,0,1284.2,50,23.62,23.62,0,0,0,1289.1,50.49Z"/><path class="cls-2" d="M1306.3,41.05a20,20,0,0,1,1.33-7.61,16.32,16.32,0,0,1,3.51-5.43,14.55,14.55,0,0,1,5-3.29A15.55,15.55,0,0,1,1322,23.6q6.94,0,11,4.25t4,12.52c0,.54,0,1.13-.07,1.77s-.08,1.21-.12,1.7h-21a6.11,6.11,0,0,0,2.67,4.54,10.7,10.7,0,0,0,6.33,1.68,26.73,26.73,0,0,0,5-.47,18.62,18.62,0,0,0,4-1.15l1.24,7.51a12.82,12.82,0,0,1-2,.75,24.48,24.48,0,0,1-2.76.65c-1,.19-2.1.34-3.26.47a33.81,33.81,0,0,1-3.48.19,20.56,20.56,0,0,1-7.67-1.31,15,15,0,0,1-5.4-3.57,14.1,14.1,0,0,1-3.17-5.37A21.39,21.39,0,0,1,1306.3,41.05ZM1328,37.51a9.4,9.4,0,0,0-.4-2.3,5.74,5.74,0,0,0-1.06-2,5.46,5.46,0,0,0-1.8-1.43,5.75,5.75,0,0,0-2.7-.56,6.2,6.2,0,0,0-2.67.53,5.47,5.47,0,0,0-1.86,1.39,6.29,6.29,0,0,0-1.15,2,12.84,12.84,0,0,0-.59,2.33Z"/><path class="cls-2" d="M1354.08,23.6a21.41,21.41,0,0,1,6.83.93,10.5,10.5,0,0,1,4.38,2.67,9.76,9.76,0,0,1,2.33,4.22,20.67,20.67,0,0,1,.69,5.53V56.2c-1.33.29-3.17.64-5.53,1a53.52,53.52,0,0,1-8.57.59,27.42,27.42,0,0,1-5.75-.56,12.44,12.44,0,0,1-4.44-1.83,8.37,8.37,0,0,1-2.85-3.33,11.31,11.31,0,0,1-1-5,9.51,9.51,0,0,1,1.15-4.85,8.91,8.91,0,0,1,3.08-3.17,14.18,14.18,0,0,1,4.41-1.71,24.78,24.78,0,0,1,5.15-.52,30.3,30.3,0,0,1,3.2.15,14.32,14.32,0,0,1,2.26.41v-.87a5.11,5.11,0,0,0-1.42-3.79c-1-.95-2.61-1.43-5-1.43a32.77,32.77,0,0,0-4.66.34,20.28,20.28,0,0,0-4,1l-1.18-7.45c.53-.16,1.21-.34,2-.53s1.69-.35,2.64-.49,2-.27,3-.38S1353,23.6,1354.08,23.6Zm.75,27.08c.91,0,1.78,0,2.61-.07a18.37,18.37,0,0,0,2-.18v-7c-.37-.08-.93-.16-1.67-.25a19.42,19.42,0,0,0-2-.12,18.85,18.85,0,0,0-2.45.15,6.56,6.56,0,0,0-2,.59,3.52,3.52,0,0,0-1.37,1.18,3.32,3.32,0,0,0-.5,1.87,3.18,3.18,0,0,0,1.46,3A8.08,8.08,0,0,0,1354.83,50.68Z"/><path class="cls-2" d="M1394.65,32.67c-.83-.21-1.8-.43-2.92-.66a18.65,18.65,0,0,0-3.6-.34,17.56,17.56,0,0,0-2.08.16,12.17,12.17,0,0,0-1.83.34v25H1375V26.21a56.07,56.07,0,0,1,5.87-1.65,33.71,33.71,0,0,1,7.55-.77q.73,0,1.8.09c.7.06,1.41.14,2.11.25s1.41.22,2.11.37a10,10,0,0,1,1.8.53Z"/><path class="cls-2" d="M1397.37,40.8a19.12,19.12,0,0,1,1.15-6.67,15.57,15.57,0,0,1,8.6-9.16,17.43,17.43,0,0,1,7.08-1.37,22.2,22.2,0,0,1,4.78.47,23,23,0,0,1,4.22,1.33l-1.92,7.39a23.63,23.63,0,0,0-2.86-.87,14.8,14.8,0,0,0-3.48-.37q-4.1,0-6.11,2.54a10.48,10.48,0,0,0-2,6.71,10.86,10.86,0,0,0,1.89,6.83q1.89,2.43,6.62,2.43a23.56,23.56,0,0,0,3.6-.31,15.34,15.34,0,0,0,3.54-1l1.3,7.58a21.91,21.91,0,0,1-4,1.18,26.78,26.78,0,0,1-5.34.5,20.14,20.14,0,0,1-7.71-1.34,14.45,14.45,0,0,1-5.3-3.63,14.14,14.14,0,0,1-3.05-5.44A23.09,23.09,0,0,1,1397.37,40.8Z"/><path class="cls-2" d="M1428.16,57.14V10.43l9.25-1.49V24.59a21.37,21.37,0,0,1,2.39-.59,15.68,15.68,0,0,1,2.83-.28,17.53,17.53,0,0,1,6.61,1.09,10.24,10.24,0,0,1,4.23,3.08,11.83,11.83,0,0,1,2.23,4.71,26,26,0,0,1,.65,6.09V57.14h-9.25V39.81q0-4.47-1.15-6.34c-.77-1.24-2.18-1.86-4.25-1.86a11.45,11.45,0,0,0-2.33.22c-.73.14-1.38.3-2,.46V57.14Z"/><path class="cls-2" d="M1034.43,122.16c-.48-1.49-1-3-1.54-4.6l-1.65-4.71h-16.81c-.54,1.57-1.09,3.14-1.63,4.72s-1.06,3.11-1.53,4.59h-10.06q2.43-6.94,4.61-12.85t4.27-11.12q2.08-5.22,4.11-9.9t4.21-9.16h9.18q2.12,4.47,4.18,9.16t4.15,9.9q2.08,5.22,4.27,11.12t4.62,12.85Zm-11.64-33.28c-.21.62-.53,1.47-.95,2.55s-.89,2.32-1.42,3.73-1.12,3-1.78,4.65-1.32,3.48-2,5.34h12.3c-.66-1.87-1.29-3.65-1.91-5.35s-1.2-3.26-1.76-4.67l-1.46-3.73Q1023.18,89.79,1022.79,88.88Z"/><path class="cls-2" d="M1060.39,122.78a23,23,0,0,1-6.55-.87,9.69,9.69,0,0,1-4-2.26,7.54,7.54,0,0,1-2-3.54,18.73,18.73,0,0,1-.53-4.69v-36L1056.6,74v35.59a11.59,11.59,0,0,0,.19,2.23,3.5,3.5,0,0,0,2.23,2.8,8.37,8.37,0,0,0,2.67.55Z"/><path class="cls-2" d="M1078.21,122.78a23,23,0,0,1-6.55-.87,9.58,9.58,0,0,1-4-2.26,7.47,7.47,0,0,1-2-3.54,19.21,19.21,0,0,1-.53-4.69v-36l9.25-1.49v35.59a12.45,12.45,0,0,0,.19,2.23,3.89,3.89,0,0,0,.72,1.68,3.77,3.77,0,0,0,1.52,1.12,8.25,8.25,0,0,0,2.67.55Z"/><path class="cls-2" d="M1093.18,80.06a5.09,5.09,0,0,1-1.64,4,5.89,5.89,0,0,1-7.76,0,5.69,5.69,0,0,1,0-8,5.89,5.89,0,0,1,7.76,0A5.11,5.11,0,0,1,1093.18,80.06Zm-.86,42.1h-9.26V89.5h9.26Z"/><path class="cls-2" d="M1111,88.63a21.46,21.46,0,0,1,6.83.93,10.63,10.63,0,0,1,4.38,2.67,10,10,0,0,1,2.33,4.22,21.1,21.1,0,0,1,.68,5.53v19.25q-2,.43-5.53,1a53.44,53.44,0,0,1-8.57.59,27.32,27.32,0,0,1-5.74-.56,12.73,12.73,0,0,1-4.44-1.83,8.39,8.39,0,0,1-2.86-3.33,11.48,11.48,0,0,1-1-5,9.48,9.48,0,0,1,1.15-4.84,8.8,8.8,0,0,1,3.07-3.17,13.94,13.94,0,0,1,4.41-1.71,24.85,24.85,0,0,1,5.15-.52,30.3,30.3,0,0,1,3.2.15,14.63,14.63,0,0,1,2.27.4v-.86a5.12,5.12,0,0,0-1.43-3.79q-1.42-1.42-5-1.43a31.47,31.47,0,0,0-4.66.34,20.46,20.46,0,0,0-4,1l-1.18-7.45c.54-.17,1.21-.34,2-.53s1.68-.35,2.64-.5,2-.26,3-.37S1109.88,88.63,1111,88.63Zm.74,27.07q1.36,0,2.61-.06a18.86,18.86,0,0,0,2-.18v-7a16.73,16.73,0,0,0-1.68-.25,19.44,19.44,0,0,0-2-.13,18.79,18.79,0,0,0-2.45.16,6.3,6.3,0,0,0-2,.59,3.51,3.51,0,0,0-1.37,1.18,3.3,3.3,0,0,0-.49,1.86,3.17,3.17,0,0,0,1.46,3A8.16,8.16,0,0,0,1111.7,115.7Z"/><path class="cls-2" d="M1131.84,90.62a51.73,51.73,0,0,1,6.08-1.28,50.47,50.47,0,0,1,7.83-.59,18.92,18.92,0,0,1,6.92,1.09,10.44,10.44,0,0,1,4.38,3.07,12,12,0,0,1,2.3,4.72,25.39,25.39,0,0,1,.68,6.09v18.44h-9.25V104.84c0-3-.4-5.1-1.18-6.34s-2.26-1.86-4.41-1.86c-.66,0-1.37,0-2.11.09s-1.41.14-2,.22v25.21h-9.25Z"/><path class="cls-2" d="M1165,105.83a19.41,19.41,0,0,1,1.15-6.68,16,16,0,0,1,3.33-5.46,15.76,15.76,0,0,1,5.27-3.7,17.43,17.43,0,0,1,7.08-1.36,23,23,0,0,1,4.79.46,23.51,23.51,0,0,1,4.22,1.34l-1.93,7.39A24,24,0,0,0,1186,97a14.92,14.92,0,0,0-3.48-.37q-4.1,0-6.12,2.54a10.54,10.54,0,0,0-2,6.71q0,4.41,1.9,6.83c1.26,1.62,3.46,2.42,6.61,2.42a22.27,22.27,0,0,0,3.6-.31,14.59,14.59,0,0,0,3.54-1l1.31,7.58a22.85,22.85,0,0,1-4,1.18,26.74,26.74,0,0,1-5.34.49,20.1,20.1,0,0,1-7.7-1.33,14.47,14.47,0,0,1-5.31-3.64,14.08,14.08,0,0,1-3-5.43A22.81,22.81,0,0,1,1165,105.83Z"/><path class="cls-2" d="M1193.6,106.08a20,20,0,0,1,1.34-7.61,16.32,16.32,0,0,1,3.51-5.43,14.63,14.63,0,0,1,5-3.3,15.73,15.73,0,0,1,5.8-1.11q7,0,11,4.25t4,12.51q0,.81-.06,1.77t-.12,1.71h-21a6.13,6.13,0,0,0,2.66,4.54,10.82,10.82,0,0,0,6.34,1.67,26.81,26.81,0,0,0,5-.46,19.1,19.1,0,0,0,4-1.15l1.25,7.51a12.82,12.82,0,0,1-2,.75,26.86,26.86,0,0,1-2.76.65c-1,.19-2.11.34-3.26.47a33.8,33.8,0,0,1-3.48.18,20.56,20.56,0,0,1-7.67-1.3,15,15,0,0,1-5.41-3.57,14.21,14.21,0,0,1-3.16-5.37A21.39,21.39,0,0,1,1193.6,106.08Zm21.74-3.54a9.81,9.81,0,0,0-.4-2.3,5.69,5.69,0,0,0-1.06-2,5.81,5.81,0,0,0-1.8-1.43,5.93,5.93,0,0,0-2.7-.55,6.2,6.2,0,0,0-2.67.52,5.64,5.64,0,0,0-1.87,1.4,6.16,6.16,0,0,0-1.14,2,12.84,12.84,0,0,0-.59,2.33Z"/><path class="cls-2" d="M1270.86,106.14a20.58,20.58,0,0,1-1.09,6.89,15.38,15.38,0,0,1-3,5.28,14,14,0,0,1-4.63,3.39,15,15,0,0,1-11.8,0,13.83,13.83,0,0,1-4.62-3.39,15.4,15.4,0,0,1-3-5.28,22.52,22.52,0,0,1,0-13.78,15.73,15.73,0,0,1,3-5.31,13.65,13.65,0,0,1,4.62-3.42,15,15,0,0,1,11.8,0,13.78,13.78,0,0,1,4.63,3.42,15.71,15.71,0,0,1,3,5.31A20.62,20.62,0,0,1,1270.86,106.14Zm-4.29,0q0-6-2.79-9.59a9.81,9.81,0,0,0-15.16,0q-2.79,3.57-2.79,9.59t2.79,9.56a9.89,9.89,0,0,0,15.16,0Q1266.57,112.16,1266.57,106.14Z"/><path class="cls-2" d="M1289.32,74a18.31,18.31,0,0,1,4.25.41,8.77,8.77,0,0,1,2.14.71l-.81,3.48a12.7,12.7,0,0,0-2-.66,14.47,14.47,0,0,0-3.39-.34q-4.29,0-6.12,2.18c-1.22,1.45-1.83,3.76-1.83,7v3.35h12.92v3.42h-12.92v28.69h-4V86.58q0-6.27,2.89-9.44T1289.32,74Z"/><path class="cls-2" d="M1330.05,123.09a19.76,19.76,0,0,1-7.73-1.49,17.58,17.58,0,0,1-6.21-4.34,20.77,20.77,0,0,1-4.16-7.05,28.15,28.15,0,0,1-1.52-9.6,26,26,0,0,1,1.65-9.59,21.23,21.23,0,0,1,4.37-7,18.25,18.25,0,0,1,6.34-4.32,19.85,19.85,0,0,1,7.51-1.46,29.61,29.61,0,0,1,4.41.31,24.91,24.91,0,0,1,3.48.78,25.48,25.48,0,0,1,2.55.93,10.88,10.88,0,0,1,1.61.84L1341,84.71a24.63,24.63,0,0,0-3.94-1.83,19.33,19.33,0,0,0-13,.47A13.87,13.87,0,0,0,1319,87.2a16.75,16.75,0,0,0-3.08,5.9,26.43,26.43,0,0,0-1,7.58,27.25,27.25,0,0,0,1,7.73,16.65,16.65,0,0,0,3,5.87,13.32,13.32,0,0,0,4.87,3.72,15.92,15.92,0,0,0,6.61,1.31,25.68,25.68,0,0,0,6.87-.78,20.33,20.33,0,0,0,4.19-1.58l1.18,3.6a7.78,7.78,0,0,1-1.49.71,27.25,27.25,0,0,1-2.67.84,28.24,28.24,0,0,1-3.73.71A35.46,35.46,0,0,1,1330.05,123.09Z"/><path class="cls-2" d="M1358.15,89.31a14.22,14.22,0,0,1,5.37.9,9.17,9.17,0,0,1,3.57,2.49,9.8,9.8,0,0,1,2,3.75,17.32,17.32,0,0,1,.62,4.72v20.25c-.42.12-1,.26-1.8.4s-1.7.3-2.73.47-2.19.3-3.45.4-2.56.16-3.88.16a18.67,18.67,0,0,1-4.69-.56,10.65,10.65,0,0,1-3.73-1.77,8.46,8.46,0,0,1-2.48-3.11,10.69,10.69,0,0,1-.9-4.62,9.47,9.47,0,0,1,1-4.48,8.4,8.4,0,0,1,2.8-3.07,12.37,12.37,0,0,1,4.28-1.77,24.8,24.8,0,0,1,5.4-.56c.58,0,1.19,0,1.84.09s1.26.15,1.86.25,1.12.21,1.55.31a5.18,5.18,0,0,1,.9.28v-2a20.63,20.63,0,0,0-.25-3.27,7,7,0,0,0-1.08-2.85,6.08,6.08,0,0,0-2.36-2,8.83,8.83,0,0,0-4-.78,20.74,20.74,0,0,0-5.28.5c-1.16.33-2,.6-2.54.81l-.56-3.54a15.48,15.48,0,0,1,3.26-.94A28.76,28.76,0,0,1,1358.15,89.31Zm.37,29.93c1.57,0,3,0,4.13-.15a28.92,28.92,0,0,0,3-.4V107.38a13.17,13.17,0,0,0-2.17-.65,19.09,19.09,0,0,0-4.1-.34,22.63,22.63,0,0,0-3.11.22,8.8,8.8,0,0,0-3,.93,6.18,6.18,0,0,0-2.23,1.95,5.65,5.65,0,0,0-.87,3.3,7.1,7.1,0,0,0,.59,3,4.83,4.83,0,0,0,1.67,2,7.52,7.52,0,0,0,2.61,1.09A15.75,15.75,0,0,0,1358.52,119.24Z"/><path class="cls-2" d="M1377.81,91.17c1.2-.33,2.82-.7,4.85-1.12a38.28,38.28,0,0,1,7.45-.62,15.62,15.62,0,0,1,6.12,1.06,9.4,9.4,0,0,1,3.91,3,12.33,12.33,0,0,1,2.08,4.69,27.46,27.46,0,0,1,.62,6v17.94h-4V105.52a30.49,30.49,0,0,0-.47-5.78,9.75,9.75,0,0,0-1.55-3.85,6.12,6.12,0,0,0-2.86-2.14,13.09,13.09,0,0,0-4.44-.65,33.57,33.57,0,0,0-4.94.31,14.79,14.79,0,0,0-2.7.56v28.19h-4Z"/><path class="cls-2" d="M1420.42,89.31a14.19,14.19,0,0,1,5.37.9,9.17,9.17,0,0,1,3.57,2.49,9.53,9.53,0,0,1,2,3.75,16.94,16.94,0,0,1,.62,4.72v20.25a17.61,17.61,0,0,1-1.8.4c-.78.15-1.69.3-2.73.47s-2.18.3-3.45.4-2.55.16-3.88.16a18.67,18.67,0,0,1-4.69-.56,10.6,10.6,0,0,1-3.72-1.77,8.38,8.38,0,0,1-2.49-3.11,10.69,10.69,0,0,1-.9-4.62,9.35,9.35,0,0,1,1-4.48,8.46,8.46,0,0,1,2.79-3.07,12.42,12.42,0,0,1,4.29-1.77,24.67,24.67,0,0,1,5.4-.56q.87,0,1.83.09c.64.07,1.26.15,1.86.25s1.12.21,1.56.31a5.85,5.85,0,0,1,.9.28v-2a21.87,21.87,0,0,0-.25-3.27,7.2,7.2,0,0,0-1.09-2.85,6,6,0,0,0-2.36-2,8.79,8.79,0,0,0-4-.78,20.74,20.74,0,0,0-5.28.5q-1.74.5-2.55.81l-.56-3.54a15.67,15.67,0,0,1,3.26-.94A28.76,28.76,0,0,1,1420.42,89.31Zm.38,29.93c1.57,0,3,0,4.12-.15a29.16,29.16,0,0,0,3-.4V107.38a13.35,13.35,0,0,0-2.18-.65,19,19,0,0,0-4.09-.34,22.52,22.52,0,0,0-3.11.22,8.73,8.73,0,0,0-3,.93,6.21,6.21,0,0,0-2.24,1.95,5.65,5.65,0,0,0-.87,3.3,7.1,7.1,0,0,0,.59,3,4.85,4.85,0,0,0,1.68,2,7.36,7.36,0,0,0,2.61,1.09A15.63,15.63,0,0,0,1420.8,119.24Z"/><path class="cls-2" d="M1465.73,121.17a34.46,34.46,0,0,1-11.68,1.74,17.2,17.2,0,0,1-6.43-1.15,14,14,0,0,1-5-3.32,15.28,15.28,0,0,1-3.23-5.28,20.27,20.27,0,0,1-1.14-7,22.54,22.54,0,0,1,1-6.74,15.34,15.34,0,0,1,2.82-5.31,12.83,12.83,0,0,1,4.57-3.47,14.61,14.61,0,0,1,6.18-1.25,15.28,15.28,0,0,1,5.5.9,14.4,14.4,0,0,1,3.38,1.71V74.72l4-.75Zm-4-25.28a13,13,0,0,0-1.4-.93,13.33,13.33,0,0,0-2-.93,14.93,14.93,0,0,0-2.42-.71,12.77,12.77,0,0,0-2.73-.28,10.76,10.76,0,0,0-5,1,9.14,9.14,0,0,0-3.26,2.83,11.8,11.8,0,0,0-1.8,4.16,22.29,22.29,0,0,0-.56,5.06q0,6.33,3.17,9.72a10.93,10.93,0,0,0,8.38,3.38,34.27,34.27,0,0,0,4.81-.27,19.08,19.08,0,0,0,2.77-.59Z"/><path class="cls-2" d="M1483.72,89.31a14.22,14.22,0,0,1,5.37.9,9.17,9.17,0,0,1,3.57,2.49,9.66,9.66,0,0,1,2,3.75,16.94,16.94,0,0,1,.62,4.72v20.25a17.61,17.61,0,0,1-1.8.4c-.78.15-1.7.3-2.73.47s-2.18.3-3.45.4-2.55.16-3.88.16a18.67,18.67,0,0,1-4.69-.56,10.6,10.6,0,0,1-3.72-1.77,8.38,8.38,0,0,1-2.49-3.11,10.69,10.69,0,0,1-.9-4.62,9.35,9.35,0,0,1,1-4.48,8.46,8.46,0,0,1,2.79-3.07,12.42,12.42,0,0,1,4.29-1.77,24.67,24.67,0,0,1,5.4-.56q.87,0,1.83.09c.64.07,1.26.15,1.86.25s1.12.21,1.56.31a5.85,5.85,0,0,1,.9.28v-2a21.87,21.87,0,0,0-.25-3.27,7.2,7.2,0,0,0-1.09-2.85,6,6,0,0,0-2.36-2,8.79,8.79,0,0,0-4-.78,20.74,20.74,0,0,0-5.28.5q-1.74.5-2.55.81l-.56-3.54a15.67,15.67,0,0,1,3.26-.94A28.76,28.76,0,0,1,1483.72,89.31Zm.37,29.93q2.37,0,4.14-.15a28.92,28.92,0,0,0,3-.4V107.38a13.35,13.35,0,0,0-2.18-.65,19.09,19.09,0,0,0-4.1-.34,22.49,22.49,0,0,0-3.1.22,8.73,8.73,0,0,0-3,.93,6.21,6.21,0,0,0-2.24,1.95,5.65,5.65,0,0,0-.87,3.3,7.1,7.1,0,0,0,.59,3,4.93,4.93,0,0,0,1.68,2,7.36,7.36,0,0,0,2.61,1.09A15.6,15.6,0,0,0,1484.09,119.24Z"/><path class="cls-2" d="M305.47,57.14q-.72-2.25-1.55-4.61l-1.64-4.71H285.47q-.81,2.35-1.64,4.72t-1.52,4.6H272.25q2.43-7,4.61-12.86t4.26-11.12q2.08-5.22,4.12-9.9c1.34-3.13,2.75-6.18,4.2-9.16h9.18q2.13,4.47,4.18,9.16t4.15,9.9q2.1,5.22,4.28,11.12t4.61,12.86ZM293.83,23.85c-.22.62-.54,1.47-.95,2.55s-.89,2.32-1.42,3.73-1.13,3-1.79,4.66-1.32,3.47-2,5.33H300q-1-2.8-1.92-5.35c-.61-1.7-1.2-3.26-1.75-4.67l-1.47-3.72C294.42,25.3,294.09,24.46,293.83,23.85Z"/><path class="cls-2" d="M331.42,57.76a23.75,23.75,0,0,1-6.55-.87,9.77,9.77,0,0,1-4-2.27,7.51,7.51,0,0,1-2-3.54,19.21,19.21,0,0,1-.53-4.69v-36l9.26-1.49V44.53a12.51,12.51,0,0,0,.18,2.23,3.54,3.54,0,0,0,2.24,2.8,8.5,8.5,0,0,0,2.67.56Z"/><path class="cls-2" d="M349.25,57.76a23.69,23.69,0,0,1-6.55-.87,9.74,9.74,0,0,1-4-2.27,7.59,7.59,0,0,1-2-3.54,19.23,19.23,0,0,1-.52-4.69v-36l9.25-1.49V44.53a11.59,11.59,0,0,0,.19,2.23,3.5,3.5,0,0,0,2.23,2.8,8.5,8.5,0,0,0,2.67.56Z"/><path class="cls-2" d="M364.22,15a5.05,5.05,0,0,1-1.65,4,5.86,5.86,0,0,1-7.76,0,5.09,5.09,0,0,1-1.65-4,5.12,5.12,0,0,1,1.65-4,5.92,5.92,0,0,1,7.76,0A5.09,5.09,0,0,1,364.22,15Zm-.87,42.11H354.1V24.47h9.25Z"/><path class="cls-2" d="M382,23.6a21.46,21.46,0,0,1,6.83.93,10.56,10.56,0,0,1,4.38,2.67,9.76,9.76,0,0,1,2.33,4.22,20.68,20.68,0,0,1,.68,5.53V56.2c-1.32.29-3.16.64-5.52,1a53.52,53.52,0,0,1-8.57.59,27.42,27.42,0,0,1-5.75-.56,12.44,12.44,0,0,1-4.44-1.83,8.37,8.37,0,0,1-2.85-3.33,11.31,11.31,0,0,1-1-5,9.51,9.51,0,0,1,1.15-4.85,9,9,0,0,1,3.07-3.17,14.38,14.38,0,0,1,4.41-1.71,25,25,0,0,1,5.16-.52,30.44,30.44,0,0,1,3.2.15,14.32,14.32,0,0,1,2.26.41v-.87a5.11,5.11,0,0,0-1.42-3.79c-1-.95-2.61-1.43-5-1.43a32.67,32.67,0,0,0-4.66.34,20.57,20.57,0,0,0-4,1l-1.18-7.45c.54-.16,1.22-.34,2-.53s1.69-.35,2.64-.49,2-.27,3-.38S380.92,23.6,382,23.6Zm.75,27.08c.91,0,1.78,0,2.61-.07a18.63,18.63,0,0,0,2-.18v-7c-.37-.08-.93-.16-1.67-.25a19.42,19.42,0,0,0-2.05-.12,19.12,19.12,0,0,0-2.46.15,6.58,6.58,0,0,0-2,.59A3.52,3.52,0,0,0,377.77,45a3.32,3.32,0,0,0-.5,1.87,3.18,3.18,0,0,0,1.46,3A8.06,8.06,0,0,0,382.74,50.68Z"/><path class="cls-2" d="M402.87,25.59A51.51,51.51,0,0,1,409,24.31a50.34,50.34,0,0,1,7.82-.59,19.23,19.23,0,0,1,6.93,1.09,10.37,10.37,0,0,1,4.38,3.08,11.92,11.92,0,0,1,2.29,4.71,24.93,24.93,0,0,1,.69,6.09V57.14h-9.26V39.81q0-4.47-1.18-6.34c-.79-1.24-2.25-1.86-4.41-1.86-.66,0-1.36,0-2.11.09s-1.41.14-2,.22V57.14h-9.25Z"/><path class="cls-2" d="M436,40.8a19.12,19.12,0,0,1,1.15-6.67,15.57,15.57,0,0,1,8.6-9.16,17.43,17.43,0,0,1,7.08-1.37,22.2,22.2,0,0,1,4.78.47,23,23,0,0,1,4.22,1.33l-1.92,7.39a24.2,24.2,0,0,0-2.86-.87,14.86,14.86,0,0,0-3.48-.37q-4.09,0-6.11,2.54a10.48,10.48,0,0,0-2,6.71,10.86,10.86,0,0,0,1.89,6.83q1.89,2.43,6.62,2.43a23.67,23.67,0,0,0,3.6-.31,15.34,15.34,0,0,0,3.54-1l1.3,7.58a22,22,0,0,1-4,1.18A26.63,26.63,0,0,1,453,58a20.13,20.13,0,0,1-7.7-1.34A14.45,14.45,0,0,1,440,53a14.14,14.14,0,0,1-3-5.44A23.09,23.09,0,0,1,436,40.8Z"/><path class="cls-2" d="M464.64,41.05A20,20,0,0,1,466,33.44,16.32,16.32,0,0,1,469.48,28a14.55,14.55,0,0,1,5-3.29,15.55,15.55,0,0,1,5.81-1.12q7,0,11,4.25t4,12.52c0,.54,0,1.13-.07,1.77s-.08,1.21-.12,1.7h-21a6.17,6.17,0,0,0,2.67,4.54,10.7,10.7,0,0,0,6.33,1.68,26.73,26.73,0,0,0,5-.47,18.62,18.62,0,0,0,4-1.15L493.39,56a12.82,12.82,0,0,1-2,.75,24,24,0,0,1-2.76.65c-1,.19-2.1.34-3.26.47a33.81,33.81,0,0,1-3.48.19,20.59,20.59,0,0,1-7.67-1.31,15,15,0,0,1-5.4-3.57,14.23,14.23,0,0,1-3.17-5.37A21.39,21.39,0,0,1,464.64,41.05Zm21.73-3.54a9.4,9.4,0,0,0-.4-2.3,5.74,5.74,0,0,0-1.06-2,5.46,5.46,0,0,0-1.8-1.43,5.75,5.75,0,0,0-2.7-.56,6.26,6.26,0,0,0-2.67.53,5.57,5.57,0,0,0-1.86,1.39,6.29,6.29,0,0,0-1.15,2,12.84,12.84,0,0,0-.59,2.33Z"/><path class="cls-2" d="M543.07,56.08c-.82.25-1.78.49-2.85.71s-2.21.43-3.39.59-2.38.3-3.6.41-2.39.15-3.51.15a20.44,20.44,0,0,1-7.2-1.18,14.39,14.39,0,0,1-5.34-3.38A14.75,14.75,0,0,1,513.85,48a20.52,20.52,0,0,1-1.15-7,24.17,24.17,0,0,1,1-7.17,15.4,15.4,0,0,1,2.86-5.44A12.12,12.12,0,0,1,521.12,25a15.24,15.24,0,0,1,6.18-1.18,14.54,14.54,0,0,1,3.45.37,19.23,19.23,0,0,1,3.07,1.05V10.43l9.25-1.49ZM522.14,40.55a11.38,11.38,0,0,0,1.93,6.9,6.64,6.64,0,0,0,5.71,2.61c.83,0,1.6,0,2.3-.1s1.28-.13,1.74-.21V32.92a7.91,7.91,0,0,0-2.27-.94,11.25,11.25,0,0,0-2.82-.37Q522.15,31.61,522.14,40.55Z"/><path class="cls-2" d="M548.39,41.05a20,20,0,0,1,1.33-7.61A16.32,16.32,0,0,1,553.23,28a14.55,14.55,0,0,1,5-3.29A15.55,15.55,0,0,1,564,23.6q7,0,11,4.25t4,12.52c0,.54,0,1.13-.07,1.77s-.08,1.21-.12,1.7h-21a6.14,6.14,0,0,0,2.67,4.54,10.7,10.7,0,0,0,6.33,1.68,26.73,26.73,0,0,0,5-.47,18.62,18.62,0,0,0,4-1.15L577.14,56a12.82,12.82,0,0,1-2,.75,24,24,0,0,1-2.76.65c-1,.19-2.1.34-3.26.47a33.81,33.81,0,0,1-3.48.19A20.59,20.59,0,0,1,558,56.7a15,15,0,0,1-5.4-3.57,14.1,14.1,0,0,1-3.17-5.37A21.39,21.39,0,0,1,548.39,41.05Zm21.74-3.54a9.91,9.91,0,0,0-.41-2.3,5.74,5.74,0,0,0-1.06-2,5.46,5.46,0,0,0-1.8-1.43,5.75,5.75,0,0,0-2.7-.56,6.26,6.26,0,0,0-2.67.53,5.68,5.68,0,0,0-1.86,1.39,6.29,6.29,0,0,0-1.15,2,12.84,12.84,0,0,0-.59,2.33Z"/><path class="cls-2" d="M617.7,32.67c-.84-.21-1.81-.43-2.93-.66a18.5,18.5,0,0,0-3.6-.34,17.56,17.56,0,0,0-2.08.16,12.69,12.69,0,0,0-1.83.34v25H598V26.21a55.38,55.38,0,0,1,5.87-1.65,33.62,33.62,0,0,1,7.54-.77q.75,0,1.8.09c.71.06,1.41.14,2.11.25s1.41.22,2.12.37a10.26,10.26,0,0,1,1.8.53Z"/><path class="cls-2" d="M620.48,41.05a20,20,0,0,1,1.33-7.61A16.32,16.32,0,0,1,625.32,28a14.46,14.46,0,0,1,5-3.29,15.54,15.54,0,0,1,5.8-1.12q7,0,11,4.25t4,12.52q0,.81-.06,1.77c0,.64-.08,1.21-.12,1.7H630a6.11,6.11,0,0,0,2.67,4.54A10.7,10.7,0,0,0,639,50.06a26.73,26.73,0,0,0,5-.47,18.62,18.62,0,0,0,4-1.15L649.23,56a12.82,12.82,0,0,1-2,.75,24.48,24.48,0,0,1-2.76.65c-1,.19-2.1.34-3.26.47a33.81,33.81,0,0,1-3.48.19,20.56,20.56,0,0,1-7.67-1.31,15,15,0,0,1-5.4-3.57,14.1,14.1,0,0,1-3.17-5.37A21.39,21.39,0,0,1,620.48,41.05Zm21.73-3.54a9.9,9.9,0,0,0-.4-2.3,5.74,5.74,0,0,0-1.06-2A5.56,5.56,0,0,0,639,31.8a5.75,5.75,0,0,0-2.7-.56,6.2,6.2,0,0,0-2.67.53,5.47,5.47,0,0,0-1.86,1.39,6.11,6.11,0,0,0-1.15,2,12.84,12.84,0,0,0-.59,2.33Z"/><path class="cls-2" d="M654.84,40.8A19.12,19.12,0,0,1,656,34.13a15.57,15.57,0,0,1,8.6-9.16,17.43,17.43,0,0,1,7.08-1.37,22.2,22.2,0,0,1,4.78.47,23.33,23.33,0,0,1,4.23,1.33l-1.93,7.39a24,24,0,0,0-2.85-.87,14.92,14.92,0,0,0-3.48-.37c-2.74,0-4.77.85-6.12,2.54a10.48,10.48,0,0,0-2,6.71q0,4.41,1.9,6.83t6.61,2.43a23.46,23.46,0,0,0,3.6-.31,15.2,15.2,0,0,0,3.54-1l1.31,7.58a22.27,22.27,0,0,1-4,1.18,26.71,26.71,0,0,1-5.34.5,20.09,20.09,0,0,1-7.7-1.34A14.49,14.49,0,0,1,658.85,53a14.12,14.12,0,0,1-3-5.44A22.76,22.76,0,0,1,654.84,40.8Z"/><path class="cls-2" d="M685.63,57.14V10.43l9.26-1.49V24.59a20.83,20.83,0,0,1,2.39-.59,15.48,15.48,0,0,1,2.82-.28,17.58,17.58,0,0,1,6.62,1.09,10.21,10.21,0,0,1,4.22,3.08,11.84,11.84,0,0,1,2.24,4.71,26.58,26.58,0,0,1,.65,6.09V57.14h-9.26V39.81q0-4.47-1.14-6.34t-4.26-1.86a11.52,11.52,0,0,0-2.33.22c-.72.14-1.38.3-2,.46V57.14Z"/><path class="cls-2" d="M718.77,41.05a19.82,19.82,0,0,1,1.34-7.61,16.3,16.3,0,0,1,3.5-5.43,14.55,14.55,0,0,1,5-3.29,15.59,15.59,0,0,1,5.81-1.12q7,0,11,4.25t4,12.52q0,.81-.06,1.77c0,.64-.09,1.21-.13,1.7h-21a6.17,6.17,0,0,0,2.67,4.54,10.75,10.75,0,0,0,6.34,1.68,26.7,26.7,0,0,0,5-.47,18.45,18.45,0,0,0,4-1.15L747.52,56a12.65,12.65,0,0,1-2,.75,24.16,24.16,0,0,1-2.77.65c-1,.19-2.1.34-3.26.47A33.77,33.77,0,0,1,736,58a20.61,20.61,0,0,1-7.68-1.31,15,15,0,0,1-5.4-3.57,14.23,14.23,0,0,1-3.17-5.37A21.39,21.39,0,0,1,718.77,41.05Zm21.74-3.54a9.91,9.91,0,0,0-.41-2.3,5.89,5.89,0,0,0-1.05-2,5.67,5.67,0,0,0-1.8-1.43,5.82,5.82,0,0,0-2.71-.56,6.26,6.26,0,0,0-2.67.53A5.68,5.68,0,0,0,730,33.16a6.29,6.29,0,0,0-1.15,2,13.72,13.72,0,0,0-.59,2.33Z"/><path class="cls-2" d="M774.55,32.67c-.83-.21-1.8-.43-2.92-.66a18.65,18.65,0,0,0-3.6-.34,17.56,17.56,0,0,0-2.08.16,12.17,12.17,0,0,0-1.83.34v25h-9.26V26.21a56.07,56.07,0,0,1,5.87-1.65,33.78,33.78,0,0,1,7.55-.77c.5,0,1.09,0,1.8.09s1.41.14,2.11.25,1.41.22,2.11.37a10,10,0,0,1,1.8.53Z"/><path class="cls-2" d="M777.27,40.8a19.12,19.12,0,0,1,1.15-6.67A15.57,15.57,0,0,1,787,25a17.43,17.43,0,0,1,7.08-1.37,22.2,22.2,0,0,1,4.78.47,23,23,0,0,1,4.22,1.33l-1.92,7.39a23.63,23.63,0,0,0-2.86-.87,14.8,14.8,0,0,0-3.48-.37q-4.1,0-6.11,2.54a10.48,10.48,0,0,0-2,6.71,10.86,10.86,0,0,0,1.89,6.83c1.27,1.62,3.47,2.43,6.62,2.43a23.46,23.46,0,0,0,3.6-.31,15.34,15.34,0,0,0,3.54-1l1.3,7.58a21.91,21.91,0,0,1-4,1.18,26.78,26.78,0,0,1-5.34.5,20.14,20.14,0,0,1-7.71-1.34A14.57,14.57,0,0,1,781.27,53a14.25,14.25,0,0,1-3-5.44A23.09,23.09,0,0,1,777.27,40.8Z"/><path class="cls-2" d="M808.06,57.14V10.43l9.25-1.49V24.59a21.62,21.62,0,0,1,2.4-.59,15.48,15.48,0,0,1,2.82-.28,17.53,17.53,0,0,1,6.61,1.09,10.24,10.24,0,0,1,4.23,3.08,11.83,11.83,0,0,1,2.23,4.71,26,26,0,0,1,.65,6.09V57.14H827V39.81q0-4.47-1.15-6.34c-.77-1.24-2.18-1.86-4.25-1.86a11.45,11.45,0,0,0-2.33.22c-.73.14-1.38.3-2,.46V57.14Z"/><path class="cls-2" d="M841.2,41.05a20,20,0,0,1,1.33-7.61A16.32,16.32,0,0,1,846,28a14.46,14.46,0,0,1,5-3.29,15.55,15.55,0,0,1,5.81-1.12q6.95,0,11,4.25t4,12.52q0,.81-.06,1.77c0,.64-.08,1.21-.12,1.7h-21a6.11,6.11,0,0,0,2.67,4.54,10.7,10.7,0,0,0,6.33,1.68,26.73,26.73,0,0,0,5-.47,18.62,18.62,0,0,0,4-1.15L870,56a12.82,12.82,0,0,1-2,.75,24.48,24.48,0,0,1-2.76.65c-1,.19-2.1.34-3.26.47a33.81,33.81,0,0,1-3.48.19,20.56,20.56,0,0,1-7.67-1.31,15,15,0,0,1-5.4-3.57,14.1,14.1,0,0,1-3.17-5.37A21.39,21.39,0,0,1,841.2,41.05Zm21.73-3.54a9.4,9.4,0,0,0-.4-2.3,5.74,5.74,0,0,0-1.06-2,5.46,5.46,0,0,0-1.8-1.43,5.75,5.75,0,0,0-2.7-.56,6.23,6.23,0,0,0-2.67.53,5.47,5.47,0,0,0-1.86,1.39,6.29,6.29,0,0,0-1.15,2,12.84,12.84,0,0,0-.59,2.33Z"/><path class="cls-2" d="M276.22,90.62a52,52,0,0,1,6.09-1.28,50.34,50.34,0,0,1,7.82-.59,19,19,0,0,1,6.93,1.09,10.44,10.44,0,0,1,4.38,3.07,12,12,0,0,1,2.29,4.72,24.87,24.87,0,0,1,.69,6.09v18.44h-9.26V104.84c0-3-.39-5.1-1.18-6.34s-2.25-1.86-4.41-1.86c-.66,0-1.36,0-2.11.09s-1.41.14-2,.22v25.21h-9.26Z"/><path class="cls-2" d="M338.74,121.05a54.15,54.15,0,0,1-6.08,1.27,50.56,50.56,0,0,1-7.83.59,18.46,18.46,0,0,1-6.92-1.12,10.35,10.35,0,0,1-4.38-3.14,12.09,12.09,0,0,1-2.3-4.81,25.63,25.63,0,0,1-.68-6.15V89.5h9.25v17.07q0,4.49,1.18,6.46c.79,1.33,2.25,2,4.41,2,.66,0,1.36,0,2.11-.09s1.41-.14,2-.22V89.5h9.25Z"/><path class="cls-2" d="M363.57,104.84c0-3-.38-5.1-1.14-6.34a4.27,4.27,0,0,0-3.95-1.86q-.87,0-1.8.09c-.62.06-1.22.14-1.8.22v25.21h-9.25V90.62c.78-.21,1.71-.43,2.76-.66s2.17-.43,3.35-.62,2.39-.33,3.64-.43,2.46-.16,3.66-.16a15.35,15.35,0,0,1,5.74.9,12.78,12.78,0,0,1,3.64,2.15A15.77,15.77,0,0,1,373,89.56a15.94,15.94,0,0,1,4.75-.81,16.23,16.23,0,0,1,6.43,1.09,9.72,9.72,0,0,1,4,3.07,11.83,11.83,0,0,1,2.05,4.72,30.65,30.65,0,0,1,.56,6.09v18.44h-9.26V104.84c0-3-.38-5.1-1.15-6.34a4.25,4.25,0,0,0-3.94-1.86,8.21,8.21,0,0,0-2.08.37,8.3,8.3,0,0,0-2.21.93,14,14,0,0,1,.57,3c.08,1.05.12,2.18.12,3.38v17.82h-9.26Z"/><path class="cls-2" d="M395.72,106.08a20,20,0,0,1,1.33-7.61A16.32,16.32,0,0,1,400.56,93a14.72,14.72,0,0,1,5-3.3,15.78,15.78,0,0,1,5.81-1.11q6.94,0,11,4.25t4,12.51q0,.81-.06,1.77c0,.65-.09,1.22-.13,1.71h-21a6.17,6.17,0,0,0,2.67,4.54,10.78,10.78,0,0,0,6.34,1.67,26.88,26.88,0,0,0,5-.46,19.29,19.29,0,0,0,4-1.15l1.24,7.51a12.65,12.65,0,0,1-2,.75,27.08,27.08,0,0,1-2.77.65c-1,.19-2.1.34-3.26.47A33.8,33.8,0,0,1,413,123a20.6,20.6,0,0,1-7.67-1.3,15,15,0,0,1-5.4-3.57,14.23,14.23,0,0,1-3.17-5.37A21.39,21.39,0,0,1,395.72,106.08Zm23.1-28.32L408.6,86.39l-4.25-3.79,8.79-10.06Zm-1.37,24.78a9.32,9.32,0,0,0-.4-2.3,5.84,5.84,0,0,0-1.05-2,5.74,5.74,0,0,0-1.81-1.43,5.87,5.87,0,0,0-2.7-.55,6.27,6.27,0,0,0-2.67.52,5.7,5.7,0,0,0-1.86,1.4,6.18,6.18,0,0,0-1.15,2,12.84,12.84,0,0,0-.59,2.33Z"/><path class="cls-2" d="M451.5,97.69c-.83-.2-1.8-.42-2.92-.65a18.65,18.65,0,0,0-3.6-.34,15.66,15.66,0,0,0-2.08.16,11,11,0,0,0-1.83.34v25h-9.26V91.23a58.83,58.83,0,0,1,5.87-1.64,33.69,33.69,0,0,1,7.55-.78c.49,0,1.09,0,1.8.1s1.41.14,2.11.24,1.41.23,2.11.38a9.82,9.82,0,0,1,1.8.52Z"/><path class="cls-2" d="M466.57,80.06a5.07,5.07,0,0,1-1.65,4,5.89,5.89,0,0,1-7.76,0,5.69,5.69,0,0,1,0-8,5.89,5.89,0,0,1,7.76,0A5.09,5.09,0,0,1,466.57,80.06Zm-.87,42.1h-9.26V89.5h9.26Z"/><path class="cls-2" d="M470.87,105.83A20,20,0,0,1,472,98.9a15.27,15.27,0,0,1,3.32-5.4A14.79,14.79,0,0,1,480.68,90a19.76,19.76,0,0,1,7.2-1.24c1.12,0,2.29,0,3.51.16s2.43.24,3.61.4,2.3.36,3.38.59,2,.47,2.86.72v43H492V121.36a17.68,17.68,0,0,1-3.23,1,16.44,16.44,0,0,1-3.6.37q-6.94,0-10.62-4.56T470.87,105.83Zm9.44.25q0,8.88,6.58,8.88a11.33,11.33,0,0,0,2.83-.37,7.84,7.84,0,0,0,2.26-.94V97c-.45-.08-1-.16-1.74-.22s-1.47-.09-2.29-.09a6.69,6.69,0,0,0-5.72,2.58A11.19,11.19,0,0,0,480.31,106.08Z"/><path class="cls-2" d="M536.05,121.05a54.15,54.15,0,0,1-6.08,1.27,50.56,50.56,0,0,1-7.83.59,18.43,18.43,0,0,1-6.92-1.12,10.35,10.35,0,0,1-4.38-3.14,12.09,12.09,0,0,1-2.3-4.81,25.63,25.63,0,0,1-.68-6.15V89.5h9.25v17.07q0,4.49,1.18,6.46c.79,1.33,2.25,2,4.41,2,.66,0,1.36,0,2.11-.09s1.41-.14,2-.22V89.5h9.25Z"/><path class="cls-2" d="M541.37,106.08a20,20,0,0,1,1.33-7.61A16.32,16.32,0,0,1,546.21,93a14.63,14.63,0,0,1,5-3.3A15.74,15.74,0,0,1,557,88.63q6.94,0,11,4.25t4,12.51q0,.81-.06,1.77t-.12,1.71h-21a6.14,6.14,0,0,0,2.67,4.54,10.77,10.77,0,0,0,6.33,1.67,26.73,26.73,0,0,0,5-.46,19.21,19.21,0,0,0,4-1.15l1.24,7.51a12.82,12.82,0,0,1-2,.75,26.25,26.25,0,0,1-2.76.65c-1,.19-2.1.34-3.26.47a33.8,33.8,0,0,1-3.48.18,20.56,20.56,0,0,1-7.67-1.3,15,15,0,0,1-5.4-3.57,14.1,14.1,0,0,1-3.17-5.37A21.39,21.39,0,0,1,541.37,106.08Zm21.73-3.54a9.32,9.32,0,0,0-.4-2.3,5.59,5.59,0,0,0-2.86-3.42,5.87,5.87,0,0,0-2.7-.55,6.27,6.27,0,0,0-2.67.52,5.5,5.5,0,0,0-1.86,1.4,6.18,6.18,0,0,0-1.15,2,12.84,12.84,0,0,0-.59,2.33Z"/><path class="cls-2" d="M616.76,121.17a36.75,36.75,0,0,1-4.6,1.18,37.25,37.25,0,0,1-7.08.56,17.2,17.2,0,0,1-6.43-1.15,13.88,13.88,0,0,1-5-3.32,15,15,0,0,1-3.23-5.28,20,20,0,0,1-1.15-7,22.54,22.54,0,0,1,1-6.74,15.36,15.36,0,0,1,2.83-5.31,12.71,12.71,0,0,1,4.56-3.47,14.61,14.61,0,0,1,6.18-1.25,15.28,15.28,0,0,1,5.5.9A14.2,14.2,0,0,1,612.72,92V74.72l4-.75Zm-4-25.28a13,13,0,0,0-1.4-.93,13.18,13.18,0,0,0-2-.93,15.55,15.55,0,0,0-2.42-.71,12.86,12.86,0,0,0-2.74-.28,10.68,10.68,0,0,0-5,1A9.09,9.09,0,0,0,596,96.92a11.8,11.8,0,0,0-1.8,4.16,22.29,22.29,0,0,0-.56,5.06q0,6.33,3.17,9.72a10.93,10.93,0,0,0,8.38,3.38A34.43,34.43,0,0,0,610,119a19.19,19.19,0,0,0,2.76-.59Z"/><path class="cls-2" d="M649.79,121.05c-1.2.33-2.81.7-4.84,1.11a37.51,37.51,0,0,1-7.45.62,15.23,15.23,0,0,1-6-1,9.94,9.94,0,0,1-3.91-3,12.28,12.28,0,0,1-2.14-4.66,26.23,26.23,0,0,1-.65-6v-18h4v16.71a28.69,28.69,0,0,0,.5,5.78,9.37,9.37,0,0,0,1.62,3.82,6.31,6.31,0,0,0,2.88,2.11,12.68,12.68,0,0,0,4.32.65,34.29,34.29,0,0,0,5-.31,13.14,13.14,0,0,0,2.67-.56V90.05h4Z"/><path class="cls-2" d="M689.67,123.09a19.77,19.77,0,0,1-7.74-1.49,17.58,17.58,0,0,1-6.21-4.34,20.77,20.77,0,0,1-4.16-7.05,28.15,28.15,0,0,1-1.52-9.6A26.23,26.23,0,0,1,671.68,91a21.42,21.42,0,0,1,4.38-7,18.35,18.35,0,0,1,6.34-4.32,19.85,19.85,0,0,1,7.51-1.46,29.51,29.51,0,0,1,4.41.31,24.59,24.59,0,0,1,3.48.78,25.48,25.48,0,0,1,2.55.93,10.88,10.88,0,0,1,1.61.84l-1.37,3.66a24.22,24.22,0,0,0-3.94-1.83,19.33,19.33,0,0,0-13,.47,13.87,13.87,0,0,0-5.06,3.85,16.57,16.57,0,0,0-3.07,5.9,26.07,26.07,0,0,0-1,7.58,26.88,26.88,0,0,0,1,7.73,16.47,16.47,0,0,0,3,5.87,13.32,13.32,0,0,0,4.87,3.72,15.93,15.93,0,0,0,6.62,1.31,25.65,25.65,0,0,0,6.86-.78,20.33,20.33,0,0,0,4.19-1.58l1.18,3.6a7.78,7.78,0,0,1-1.49.71,27.25,27.25,0,0,1-2.67.84,28.24,28.24,0,0,1-3.73.71A35.41,35.41,0,0,1,689.67,123.09Z"/><path class="cls-2" d="M717.76,89.31a14.22,14.22,0,0,1,5.37.9,9.17,9.17,0,0,1,3.57,2.49,9.66,9.66,0,0,1,2,3.75,17.32,17.32,0,0,1,.62,4.72v20.25a17.61,17.61,0,0,1-1.8.4c-.79.15-1.7.3-2.73.47s-2.19.3-3.45.4-2.56.16-3.88.16a18.67,18.67,0,0,1-4.69-.56,10.65,10.65,0,0,1-3.73-1.77,8.46,8.46,0,0,1-2.48-3.11,10.69,10.69,0,0,1-.9-4.62,9.47,9.47,0,0,1,1-4.48,8.48,8.48,0,0,1,2.8-3.07,12.45,12.45,0,0,1,4.28-1.77,24.83,24.83,0,0,1,5.41-.56c.58,0,1.18,0,1.83.09s1.26.15,1.86.25,1.12.21,1.55.31a5.18,5.18,0,0,1,.9.28v-2a21.88,21.88,0,0,0-.24-3.27,7.2,7.2,0,0,0-1.09-2.85,6.08,6.08,0,0,0-2.36-2,8.83,8.83,0,0,0-4-.78,20.6,20.6,0,0,0-5.27.5c-1.16.33-2,.6-2.55.81l-.56-3.54a15.48,15.48,0,0,1,3.26-.94A28.76,28.76,0,0,1,717.76,89.31Zm.37,29.93c1.58,0,3,0,4.13-.15a28.92,28.92,0,0,0,3-.4V107.38a13.17,13.17,0,0,0-2.17-.65,19.09,19.09,0,0,0-4.1-.34,22.38,22.38,0,0,0-3.1.22,8.85,8.85,0,0,0-3,.93,6.18,6.18,0,0,0-2.23,1.95,5.65,5.65,0,0,0-.87,3.3,7.1,7.1,0,0,0,.59,3,4.78,4.78,0,0,0,1.68,2,7.36,7.36,0,0,0,2.61,1.09A15.6,15.6,0,0,0,718.13,119.24Z"/><path class="cls-2" d="M737.43,91.17c1.2-.33,2.81-.7,4.84-1.12a38.28,38.28,0,0,1,7.45-.62,15.58,15.58,0,0,1,6.12,1.06,9.4,9.4,0,0,1,3.91,3,12.33,12.33,0,0,1,2.08,4.69,26.86,26.86,0,0,1,.62,6v17.94h-4V105.52a30.49,30.49,0,0,0-.47-5.78,9.75,9.75,0,0,0-1.55-3.85,6.12,6.12,0,0,0-2.86-2.14,13.09,13.09,0,0,0-4.44-.65,33.43,33.43,0,0,0-4.93.31,15.18,15.18,0,0,0-2.71.56v28.19h-4Z"/><path class="cls-2" d="M780,89.31a14.22,14.22,0,0,1,5.37.9A9.17,9.17,0,0,1,789,92.7a9.8,9.8,0,0,1,2,3.75,17.32,17.32,0,0,1,.62,4.72v20.25c-.42.12-1,.26-1.8.4s-1.7.3-2.74.47-2.18.3-3.44.4-2.56.16-3.89.16a18.53,18.53,0,0,1-4.68-.56,10.57,10.57,0,0,1-3.73-1.77,8.48,8.48,0,0,1-2.49-3.11,10.69,10.69,0,0,1-.9-4.62,9.47,9.47,0,0,1,1-4.48,8.46,8.46,0,0,1,2.79-3.07,12.42,12.42,0,0,1,4.29-1.77,24.67,24.67,0,0,1,5.4-.56q.87,0,1.83.09c.65.07,1.27.15,1.87.25s1.11.21,1.55.31a5.85,5.85,0,0,1,.9.28v-2a21.87,21.87,0,0,0-.25-3.27,7.2,7.2,0,0,0-1.09-2.85,6,6,0,0,0-2.36-2,8.79,8.79,0,0,0-4-.78,20.74,20.74,0,0,0-5.28.5q-1.74.5-2.55.81l-.55-3.54a15.35,15.35,0,0,1,3.25-.94A28.87,28.87,0,0,1,780,89.31Zm.37,29.93c1.57,0,3,0,4.13-.15a28.92,28.92,0,0,0,3-.4V107.38a13.49,13.49,0,0,0-2.17-.65,19.15,19.15,0,0,0-4.1-.34,22.52,22.52,0,0,0-3.11.22,8.73,8.73,0,0,0-3,.93,6.29,6.29,0,0,0-2.24,1.95,5.65,5.65,0,0,0-.86,3.3,7,7,0,0,0,.59,3,4.83,4.83,0,0,0,1.67,2A7.52,7.52,0,0,0,777,118.9,15.63,15.63,0,0,0,780.41,119.24Z"/><path class="cls-2" d="M825.34,121.17a36.3,36.3,0,0,1-4.6,1.18,37.25,37.25,0,0,1-7.08.56,17.2,17.2,0,0,1-6.43-1.15,13.88,13.88,0,0,1-5-3.32,15,15,0,0,1-3.23-5.28,20,20,0,0,1-1.15-7,22.54,22.54,0,0,1,1-6.74,15.19,15.19,0,0,1,2.83-5.31,12.71,12.71,0,0,1,4.56-3.47,14.61,14.61,0,0,1,6.18-1.25,15.28,15.28,0,0,1,5.5.9A14.2,14.2,0,0,1,821.3,92V74.72l4-.75Zm-4-25.28a13,13,0,0,0-1.4-.93A13.18,13.18,0,0,0,818,94a15.36,15.36,0,0,0-2.43-.71,12.63,12.63,0,0,0-2.73-.28,10.78,10.78,0,0,0-5,1,9.14,9.14,0,0,0-3.26,2.83,12,12,0,0,0-1.8,4.16,22.29,22.29,0,0,0-.56,5.06q0,6.33,3.17,9.72a10.93,10.93,0,0,0,8.38,3.38,34.43,34.43,0,0,0,4.82-.27,19.19,19.19,0,0,0,2.76-.59Z"/><path class="cls-2" d="M843.33,89.31a14.24,14.24,0,0,1,5.38.9,9.17,9.17,0,0,1,3.57,2.49,9.64,9.64,0,0,1,2,3.75,16.94,16.94,0,0,1,.63,4.72v20.25c-.42.12-1,.26-1.81.4s-1.69.3-2.73.47-2.18.3-3.44.4-2.56.16-3.89.16a18.59,18.59,0,0,1-4.68-.56,10.57,10.57,0,0,1-3.73-1.77,8.38,8.38,0,0,1-2.49-3.11,10.84,10.84,0,0,1-.89-4.62,9.35,9.35,0,0,1,1-4.48,8.46,8.46,0,0,1,2.79-3.07,12.42,12.42,0,0,1,4.29-1.77,24.67,24.67,0,0,1,5.4-.56q.87,0,1.83.09c.64.07,1.27.15,1.87.25s1.11.21,1.55.31a5.85,5.85,0,0,1,.9.28v-2a21.87,21.87,0,0,0-.25-3.27,7.06,7.06,0,0,0-1.09-2.85,5.94,5.94,0,0,0-2.36-2,8.79,8.79,0,0,0-4-.78,20.74,20.74,0,0,0-5.28.5q-1.74.5-2.55.81l-.56-3.54a15.61,15.61,0,0,1,3.27-.94A28.57,28.57,0,0,1,843.33,89.31Zm.38,29.93c1.57,0,2.95,0,4.13-.15a28.92,28.92,0,0,0,3-.4V107.38a13.49,13.49,0,0,0-2.17-.65,19.15,19.15,0,0,0-4.1-.34,22.52,22.52,0,0,0-3.11.22,8.73,8.73,0,0,0-3,.93,6.21,6.21,0,0,0-2.24,1.95,5.65,5.65,0,0,0-.86,3.3,7,7,0,0,0,.59,3,4.83,4.83,0,0,0,1.67,2,7.52,7.52,0,0,0,2.61,1.09A15.69,15.69,0,0,0,843.71,119.24Z"/></g></g></svg>